mtllib R6.mtl
o LeftLeg
v -0.434264 -0.061224 0.500000
v -0.434264 -1.931224 0.500000
v 0.435736 -1.931224 0.500000
v 0.435736 -0.061224 0.500000
v -0.434264 0.003776 0.435000
v -0.499264 -0.061224 0.435000
v -0.499264 -1.931224 0.435000
v -0.434264 -1.996224 0.435000
v 0.435736 -1.996224 0.435000
v 0.500740 -1.931224 0.435000
v 0.500740 -0.061224 0.435000
v 0.435736 0.003776 0.435000
v -0.434264 0.003776 0.435000
v -0.434264 0.003776 -0.435000
v -0.499264 -0.061224 -0.435000
v -0.499264 -0.061224 0.435000
v -0.499264 -1.931224 -0.435000
v -0.499264 -1.931224 0.435000
v -0.434264 -1.996224 -0.435000
v -0.434264 -1.996224 0.435000
v -0.434264 -1.996224 0.435000
v -0.434264 -1.996224 -0.435000
v 0.435736 -1.996224 -0.435000
v 0.435736 -1.996224 0.435000
v 0.435736 -1.996224 0.435000
v 0.435736 -1.996224 -0.435000
v 0.500740 -1.931224 -0.435000
v 0.500740 -0.061224 -0.435000
v 0.435736 0.003776 -0.435000
v 0.435736 0.003776 0.435000
v 0.435736 0.003776 0.435000
v 0.435736 0.003776 -0.435000
v -0.434264 0.003776 -0.435000
v -0.434264 0.003776 0.435000
v -0.434264 0.003776 -0.435000
v -0.434264 -0.061224 -0.500000
v -0.434264 -1.931224 -0.500000
v -0.434264 -1.996224 -0.435000
v 0.435736 -1.931224 -0.500000
v 0.435736 -1.996224 -0.435000
v 0.435736 -0.061224 -0.500000
v 0.435736 0.003776 -0.435000
vt 0.555176 0.871094
vt 0.464356 0.871094
vt 0.464356 0.753906
vt 0.555176 0.753906
vt 0.558106 0.871094
vt 0.555176 0.878906
vt 0.464356 0.878906
vt 0.461426 0.871094
vt 0.461426 0.753906
vt 0.464356 0.746094
vt 0.555176 0.746094
vt 0.558106 0.753906
vt 0.558106 0.378906
vt 0.558106 0.496094
vt 0.555176 0.496094
vt 0.555176 0.378906
vt 0.464356 0.496094
vt 0.464356 0.378906
vt 0.461426 0.496094
vt 0.461426 0.378906
vt 0.496582 0.238281
vt 0.496582 0.355469
vt 0.452637 0.355469
vt 0.452637 0.238281
vt 0.461426 0.746094
vt 0.461426 0.628906
vt 0.464356 0.628906
vt 0.555176 0.628906
vt 0.558106 0.628906
vt 0.558106 0.746094
vt 0.347168 0.355469
vt 0.347168 0.238281
vt 0.391113 0.238281
vt 0.391113 0.355469
vt 0.558106 0.503906
vt 0.555176 0.503906
vt 0.464356 0.503906
vt 0.461426 0.503906
vt 0.464356 0.621094
vt 0.461426 0.621094
vt 0.555176 0.621094
vt 0.558106 0.621094
vn -0.0000 -0.0000 1.0000
vn -0.0001 -0.0000 1.0000
vn 0.0001 1.0000 -0.0003
vn -1.0000 -0.0001 -0.0003
vn -1.0000 0.0001 -0.0003
vn 0.0001 -1.0000 -0.0003
vn -0.0001 -1.0000 -0.0003
vn 1.0000 -0.0000 -0.0000
vn -0.0001 1.0000 -0.0003
vn 0.0002 1.0000 -0.0000
vn -1.0000 -0.0000 -0.0000
vn -1.0000 0.0003 -0.0002
vn -1.0000 -0.0002 -0.0000
vn 0.0002 -1.0000 -0.0000
vn -0.0000 -1.0000 -0.0000
vn -0.0002 -1.0000 -0.0000
vn -0.0002 1.0000 -0.0000
vn -0.0000 1.0000 -0.0000
vn 0.0001 1.0000 0.0002
vn -0.0000 -0.0000 -1.0000
vn 0.0001 -1.0000 0.0003
vn -0.0001 -1.0000 0.0003
vn -0.0001 1.0000 0.0003
usemtl Rig1Mtl
f 1/1/1 2/2/2 3/3/1
f 1/1/1 3/3/1 4/4/1
f 1/1/1 5/5/3 6/6/4
f 1/1/1 6/6/4 7/7/5
f 1/1/1 7/7/5 2/2/2
f 2/2/2 7/7/5 8/8/6
f 2/2/2 8/8/6 9/9/7
f 2/2/2 9/9/7 3/3/1
f 3/3/1 9/9/7 10/10/8
f 3/3/1 10/10/8 11/11/8
f 3/3/1 11/11/8 4/4/1
f 4/4/1 11/11/8 12/12/9
f 4/4/1 12/12/9 5/5/3
f 4/4/1 5/5/3 1/1/1
f 13/13/10 14/14/10 15/15/11
f 13/13/10 15/15/11 16/16/12
f 16/16/12 15/15/11 17/17/11
f 16/16/12 17/17/11 18/18/13
f 18/18/13 17/17/11 19/19/14
f 18/18/13 19/19/14 20/20/14
f 21/21/15 22/22/15 23/23/15
f 21/21/15 23/23/15 24/24/15
f 25/25/16 26/26/16 27/27/8
f 25/25/16 27/27/8 10/10/8
f 10/10/8 27/27/8 28/28/8
f 10/10/8 28/28/8 11/11/8
f 11/11/8 28/28/8 29/29/17
f 11/11/8 29/29/17 30/30/17
f 31/31/18 32/32/18 33/33/18
f 31/31/18 33/33/18 34/34/18
f 35/35/19 36/36/20 15/15/11
f 15/15/11 36/36/20 37/37/20
f 15/15/11 37/37/20 17/17/11
f 17/17/11 37/37/20 38/38/21
f 38/38/21 37/37/20 39/39/20
f 38/38/21 39/39/20 40/40/22
f 40/40/22 39/39/20 27/27/8
f 27/27/8 39/39/20 41/41/20
f 27/27/8 41/41/20 28/28/8
f 28/28/8 41/41/20 42/42/23
f 42/42/23 41/41/20 36/36/20
f 42/42/23 36/36/20 35/35/19
f 41/41/20 39/39/20 37/37/20
f 41/41/20 37/37/20 36/36/20
