mtllib R6.mtl
o Torso
v -0.935000 0.938776 0.500000
v -0.935000 -0.931224 0.500000
v 0.935000 -0.931224 0.500000
v 0.935000 0.938776 0.500000
v -0.935000 1.003776 0.435000
v -1.000000 0.938776 0.435000
v -1.000000 -0.931224 0.435000
v -0.935000 -0.996224 0.435000
v 0.935000 -0.996224 0.435000
v 1.000000 -0.931224 0.435000
v 1.000000 0.938776 0.435000
v 0.935000 1.003776 0.435000
v -0.935000 1.003776 0.435000
v -0.935000 1.003776 -0.435000
v -1.000000 0.938776 -0.435000
v -1.000000 -0.931224 -0.435000
v -0.935000 -0.996224 -0.435000
v -0.935000 -0.996224 0.435000
v -0.935000 -0.996224 0.435000
v -0.935000 -0.996224 -0.435000
v 0.935000 -0.996224 -0.435000
v 0.935000 -0.996224 0.435000
v 0.935000 -0.996224 0.435000
v 0.935000 -0.996224 -0.435000
v 1.000000 -0.931224 -0.435000
v 1.000000 -0.931224 0.435000
v 1.000000 0.938776 -0.435000
v 1.000000 0.938776 0.435000
v 0.935000 1.003776 -0.435000
v 0.935000 1.003776 0.435000
v 0.935000 1.003776 0.435000
v 0.935000 1.003776 -0.435000
v -0.935000 1.003776 -0.435000
v -0.935000 1.003776 0.435000
v -0.935000 1.003776 -0.435000
v -0.935000 0.938776 -0.500000
v -0.935000 -0.931224 -0.500000
v -0.935000 -0.996224 -0.435000
v 0.935000 -0.931224 -0.500000
v 0.935000 -0.996224 -0.435000
v 0.935000 0.938776 -0.500000
v 0.935000 1.003776 -0.435000
vt 0.115723 0.496094
vt 0.024902 0.496094
vt 0.024902 0.253906
vt 0.115723 0.253906
vt 0.118652 0.496094
vt 0.115723 0.503906
vt 0.024902 0.503906
vt 0.021973 0.496094
vt 0.021973 0.253906
vt 0.024902 0.246094
vt 0.115723 0.246094
vt 0.118652 0.253906
vt 0.118652 0.503906
vt 0.118652 0.621094
vt 0.115723 0.621094
vt 0.024902 0.621094
vt 0.021973 0.621094
vt 0.021973 0.503906
vt 0.337646 0.240234
vt 0.337646 0.357422
vt 0.246826 0.357422
vt 0.246826 0.240234
vt 0.021973 0.996094
vt 0.021973 0.878906
vt 0.024902 0.878906
vt 0.024902 0.996094
vt 0.115723 0.878906
vt 0.115723 0.996094
vt 0.118652 0.878906
vt 0.118652 0.996094
vt 0.147950 0.357422
vt 0.147950 0.240234
vt 0.238769 0.240234
vt 0.238769 0.357422
vt 0.118652 0.628906
vt 0.115723 0.628906
vt 0.024902 0.628906
vt 0.021973 0.628906
vt 0.024902 0.871094
vt 0.021973 0.871094
vt 0.115723 0.871094
vt 0.118652 0.871094
vn -0.0000 -0.0000 1.0000
vn -0.0000 1.0000 -0.0002
vn -1.0000 -0.0000 -0.0000
vn 0.0001 -1.0000 -0.0002
vn -0.0000 -1.0000 -0.0002
vn 1.0000 0.0001 -0.0001
vn 1.0000 -0.0000 -0.0002
vn -0.0001 1.0000 -0.0001
vn 0.0001 1.0000 -0.0000
vn 0.0001 -1.0000 -0.0000
vn -0.0000 -1.0000 -0.0000
vn -0.0001 -1.0000 -0.0000
vn 1.0000 -0.0000 -0.0000
vn 1.0000 -0.0002 -0.0000
vn 1.0000 0.0001 -0.0000
vn -0.0001 1.0000 -0.0000
vn -0.0000 1.0000 -0.0000
vn 0.0001 1.0000 0.0001
vn -0.0000 -0.0000 -1.0000
vn -0.0000 -1.0000 0.0002
vn -0.0001 -1.0000 0.0002
vn -0.0000 1.0000 0.0002
usemtl Rig1Mtl
f 1/1/1 2/2/1 3/3/1
f 1/1/1 3/3/1 4/4/1
f 1/1/1 5/5/2 6/6/3
f 1/1/1 6/6/3 7/7/3
f 1/1/1 7/7/3 2/2/1
f 2/2/1 7/7/3 8/8/4
f 2/2/1 8/8/4 9/9/5
f 2/2/1 9/9/5 3/3/1
f 3/3/1 9/9/5 10/10/6
f 3/3/1 10/10/6 11/11/7
f 3/3/1 11/11/7 4/4/1
f 4/4/1 11/11/7 12/12/8
f 4/4/1 12/12/8 5/5/2
f 4/4/1 5/5/2 1/1/1
f 13/13/9 14/14/9 15/15/3
f 13/13/9 15/15/3 6/6/3
f 6/6/3 15/15/3 16/16/3
f 6/6/3 16/16/3 7/7/3
f 7/7/3 16/16/3 17/17/10
f 7/7/3 17/17/10 18/18/10
f 19/19/11 20/20/11 21/21/11
f 19/19/11 21/21/11 22/22/11
f 23/23/12 24/24/12 25/25/13
f 23/23/12 25/25/13 26/26/14
f 26/26/14 25/25/13 27/27/13
f 26/26/14 27/27/13 28/28/15
f 28/28/15 27/27/13 29/29/16
f 28/28/15 29/29/16 30/30/16
f 31/31/17 32/32/17 33/33/17
f 31/31/17 33/33/17 34/34/17
f 35/35/18 36/36/19 15/15/3
f 15/15/3 36/36/19 37/37/19
f 15/15/3 37/37/19 16/16/3
f 16/16/3 37/37/19 38/38/20
f 38/38/20 37/37/19 39/39/19
f 38/38/20 39/39/19 40/40/21
f 40/40/21 39/39/19 25/25/13
f 25/25/13 39/39/19 41/41/19
f 25/25/13 41/41/19 27/27/13
f 27/27/13 41/41/19 42/42/22
f 42/42/22 41/41/19 36/36/19
f 42/42/22 36/36/19 35/35/18
f 41/41/19 39/39/19 37/37/19
f 41/41/19 37/37/19 36/36/19
