<svg xmlns="http://www.w3.org/2000/svg" viewBox="0 0 100 100" width="128" height="128">
  
  <g fill="none" stroke="#000000" stroke-width="3" stroke-linecap="round" stroke-linejoin="round">
    
    <g>
      <rect x="10" y="20" width="30" height="20" rx="2" fill="#FFFFFF" /> <line x1="25" y1="40" x2="25" y2="48" /> <line x1="18" y1="48" x2="32" y2="48" /> </g>

    <g>
      <rect x="60" y="20" width="30" height="20" rx="2" fill="#FFFFFF" /> <line x1="75" y1="40" x2="75" y2="48" /> <line x1="68" y1="48" x2="82" y2="48" /> </g>

    <line x1="40" y1="30" x2="60" y2="30" stroke="#000000" />
    
    <circle cx="50" cy="30" r="5" fill="#3498DB" stroke="#000000" stroke-width="2"/>
  </g>

  <path d="M 40 20 Q 50 10 60 20 L 60 15 L 68 22 L 60 29 L 60 24 Q 50 14 40 24 Z" fill="#3498DB" />

  <path d="M 60 40 Q 50 50 40 40 L 40 45 L 32 38 L 40 31 L 40 36 Q 50 46 60 36 Z" fill="#3498DB" />

</svg>
