<svg xmlns="http://www.w3.org/2000/svg" viewBox="0 0 100 100" width="128" height="128">
  <defs>
    <clipPath id="globe-clip">
      <circle cx="50" cy="50" r="45" />
    </clipPath>
  </defs>

  <circle cx="50" cy="50" r="45" fill="#5DADE2" stroke="#1A1A1A" stroke-width="4" />

  <g clip-path="url(#globe-clip)" fill="#48C9B0" stroke="#1A1A1A" stroke-width="3" stroke-linejoin="round">
    <path d="M 10 20 C 30 10 40 30 35 50 C 30 70 45 80 30 95 C 10 90 5 60 15 50 C 5 40 0 30 10 20 Z" />
    
    <path d="M 60 5 C 80 -5 100 20 90 50 C 85 65 75 90 60 85 C 40 80 50 60 60 45 C 70 30 40 15 60 5 Z" />
  </g>

  <circle cx="50" cy="50" r="45" fill="none" stroke="#1A1A1A" stroke-width="4" />
</svg>
